<svg xmlns="http://www.w3.org/2000/svg" viewBox="0 0 960 640" role="img" aria-label="Интерактивная реакция">
  <defs><linearGradient id="bg" x1="0" y1="0" x2="1" y2="1"><stop stop-color="#07111f"/><stop offset="1" stop-color="#18365d"/></linearGradient><filter id="glow"><feGaussianBlur stdDeviation="8" result="b"/><feMerge><feMergeNode in="b"/><feMergeNode in="SourceGraphic"/></feMerge></filter></defs>
  <rect width="960" height="640" fill="url(#bg)"/><g opacity=".12" stroke="#fff"><path d="M0 80h960M0 160h960M0 240h960M0 320h960M0 400h960M0 480h960M0 560h960M80 0v640M160 0v640M240 0v640M320 0v640M400 0v640M480 0v640M560 0v640M640 0v640M720 0v640M800 0v640M880 0v640"/></g>
  <rect x="46" y="46" width="868" height="548" rx="34" fill="rgba(255,255,255,.08)" stroke="rgba(255,255,255,.22)"/>
  <text x="84" y="112" fill="#f5fbff" font-family="Arial" font-size="42" font-weight="700">Интерактивная реакция</text><text x="86" y="158" fill="#aebed2" font-family="Arial" font-size="24">Газ, осадок, нагрев и цвет</text>
  <path d="M420 220h120l80 285H340z" fill="rgba(255,255,255,.10)" stroke="#dff5ff" stroke-width="5"/><path d="M420 220v-96M540 220v-96" stroke="#dff5ff" stroke-width="8" stroke-linecap="round"/><rect x="395" y="448" width="170" height="48" rx="24" fill="#1281d5"/>
  <g fill="#58e6d9" filter="url(#glow)"><circle cx="456" cy="390" r="16"/><circle cx="505" cy="345" r="18"/><circle cx="474" cy="302" r="12"/><circle cx="535" cy="270" r="11"/></g><rect x="410" y="526" width="140" height="48" rx="16" fill="#1e2d43"/><path d="M466 526h38l-19-65z" fill="#ff8b20" opacity=".85"/>
</svg>
