<svg xmlns="http://www.w3.org/2000/svg" viewBox="0 0 960 640"><defs><linearGradient id="bg" x1="0" y1="0" x2="1" y2="1"><stop stop-color="#07111f"/><stop offset="1" stop-color="#1e345f"/></linearGradient></defs><rect width="960" height="640" fill="url(#bg)"/><rect x="46" y="46" width="868" height="548" rx="34" fill="rgba(255,255,255,.08)" stroke="rgba(255,255,255,.22)"/><text x="84" y="112" fill="#f5fbff" font-family="Arial" font-size="42" font-weight="700">Ученик изучает элемент</text><text x="86" y="158" fill="#aebed2" font-family="Arial" font-size="24">Карточка элемента и свойства</text><g transform="translate(430 170)"><rect width="42" height="42" rx="7" fill="#00a86b"/><rect x="50" width="42" height="42" rx="7" fill="#1597e5"/><rect x="100" width="42" height="42" rx="7" fill="#d92534"/><rect x="150" width="42" height="42" rx="7" fill="#e5b923"/><rect y="50" width="42" height="42" rx="7" fill="#1597e5"/><rect x="50" y="50" width="42" height="42" rx="7" fill="#d92534"/><rect x="100" y="50" width="42" height="42" rx="7" fill="#00a86b"/><rect x="150" y="50" width="42" height="42" rx="7" fill="#1597e5"/><rect y="100" width="42" height="42" rx="7" fill="#e5b923"/><rect x="50" y="100" width="42" height="42" rx="7" fill="#00a86b"/><rect x="100" y="100" width="42" height="42" rx="7" fill="#1597e5"/><rect x="150" y="100" width="42" height="42" rx="7" fill="#d92534"/></g><circle cx="200" cy="318" r="38" fill="#e2b991"/><rect x="130" y="356" width="150" height="180" rx="34" fill="#23375f"/><path d="M280 410 L405 318" stroke="#e2b991" stroke-width="16" stroke-linecap="round"/><circle cx="420" cy="306" r="18" fill="#58e6d9"/></svg>
